<?xml version="1.0" standalone="no"?>
<!DOCTYPE svg PUBLIC "-//W3C//DTD SVG 20010904//EN"
 "http://www.w3.org/TR/2001/REC-SVG-20010904/DTD/svg10.dtd">
<svg version="1.0" xmlns="http://www.w3.org/2000/svg"
 width="244.000000pt" height="235.000000pt" viewBox="0 0 244.000000 235.000000"
 preserveAspectRatio="xMidYMid meet">
<metadata>
Created by potrace 1.15, written by Peter Selinger 2001-2017
</metadata>
<g transform="translate(0.000000,235.000000) scale(0.100000,-0.100000)"
fill="#539BD8" stroke="none">
<path d="M333 2265 c-58 -26 -150 -112 -178 -165 -35 -66 -47 -164 -31 -235
14 -59 59 -136 101 -173 54 -47 120 -71 215 -77 41 -2 76 -9 78 -15 2 -6 -39
-55 -92 -108 -53 -54 -106 -112 -116 -130 -23 -38 -27 -120 -8 -154 20 -35
235 -257 328 -339 77 -67 165 -59 253 23 l29 27 -126 125 c-69 69 -126 131
-126 137 0 16 554 569 570 569 6 0 66 -53 132 -117 65 -65 125 -119 132 -121
12 -3 51 37 73 76 23 40 26 97 7 138 -22 49 -321 353 -376 382 -42 23 -93 29
-103 12 -3 -5 -14 -10 -23 -10 -19 0 -53 -29 -168 -141 -45 -43 -86 -79 -93
-79 -7 0 -11 19 -11 48 0 54 -30 192 -42 192 -4 0 -8 6 -8 13 0 23 -81 96
-135 122 -75 35 -205 35 -282 0z"/>
<path d="M1645 1517 c-45 -25 -74 -55 -75 -77 0 -9 52 -67 115 -130 63 -63
115 -122 115 -130 0 -8 -128 -143 -283 -298 l-284 -284 -127 126 c-69 69 -130
126 -135 126 -30 0 -92 -109 -94 -165 0 -18 5 -45 11 -61 7 -17 88 -105 180
-196 163 -161 212 -198 266 -198 40 1 105 45 196 133 50 48 102 94 115 103
l24 15 -5 -53 c-7 -63 15 -152 51 -213 31 -53 97 -112 136 -120 16 -4 31 -11
34 -16 4 -5 48 -9 99 -9 114 0 169 23 255 108 62 61 81 95 101 184 12 51 11
67 -5 135 -10 43 -24 84 -32 91 -7 7 -13 17 -13 22 0 17 -76 81 -126 105 -36
17 -74 25 -133 29 -46 3 -86 8 -89 11 -3 3 12 24 34 48 140 148 168 178 181
197 20 29 21 117 2 152 -28 54 -334 354 -382 376 -40 17 -86 14 -132 -11z"/>
</g>
</svg>
