<svg width="93" height="45" viewBox="0 0 93 45" fill="none" xmlns="http://www.w3.org/2000/svg">
<path d="M6.61405 0.805091C4.83788 1.60251 2.0205 4.24014 1.16304 5.86565C0.0912115 7.88987 -0.276273 10.8955 0.213706 13.0731C0.642438 14.8826 2.0205 17.2442 3.3067 18.379C4.96038 19.8205 6.98154 20.5566 9.89079 20.7406C11.1464 20.802 12.2182 21.0167 12.2794 21.2007C12.3407 21.3847 11.0851 22.8875 9.46205 24.513C7.839 26.1692 6.21595 27.9481 5.90971 28.5001C5.20536 29.6656 5.08287 32.1805 5.66472 33.2233C6.27719 34.2968 12.8613 41.1055 15.7093 43.6205C18.0673 45.6754 20.7622 45.43 23.4571 42.9151L24.3452 42.087L20.4866 38.2532C18.3735 36.137 16.628 34.2354 16.628 34.0514C16.628 33.5607 33.5935 16.6002 34.0835 16.6002C34.2672 16.6002 36.1047 18.2257 38.1258 20.1886C40.1164 22.1821 41.9538 23.8383 42.1681 23.8996C42.5356 23.9916 43.7299 22.7648 44.4037 21.5687C45.108 20.3419 45.1999 18.5937 44.618 17.3362C43.9443 15.8334 34.7878 6.50972 33.1035 5.62028C31.8173 4.91487 30.2555 4.73086 29.9493 5.25225C29.8574 5.4056 29.5206 5.55895 29.2449 5.55895C28.6631 5.55895 27.6219 6.44838 24.1002 9.88343C22.7221 11.2022 21.4665 12.3064 21.2522 12.3064C21.0378 12.3064 20.9153 11.7236 20.9153 10.8342C20.9153 9.17801 19.9966 4.94555 19.6291 4.94555C19.5066 4.94555 19.3841 4.76152 19.3841 4.54683C19.3841 3.84142 16.9036 1.60251 15.2499 0.805091C12.9532 -0.268361 8.97208 -0.268361 6.61405 0.805091Z" fill="#539BD8"/>
<path d="M48.6645 21.5077C49.4305 22.8842 50.3497 23.7713 51.0238 23.8019C51.2995 23.8019 53.0766 22.2113 55.0069 20.2842C56.9372 18.3571 58.745 16.7664 58.9901 16.7664C59.2352 16.7664 63.3715 20.6818 68.1207 25.4231L76.8223 34.1103L72.9617 37.9951C70.8476 40.1058 69.1011 41.9717 69.1011 42.1246C69.1011 43.0423 72.4408 44.9388 74.1567 45C74.7082 45 75.5354 44.8471 76.0257 44.6635C76.5465 44.4494 79.2428 41.9717 82.031 39.1575C86.964 34.1715 88.0977 32.6727 88.0977 31.0209C88.067 29.7973 86.7189 27.809 84.0226 25.0254C82.5519 23.496 81.1425 21.9054 80.8667 21.5077L80.4071 20.7736L82.031 20.9265C83.9613 21.1406 86.6882 20.4677 88.5573 19.3665C90.1812 18.4182 91.9889 16.3994 92.234 15.2064C92.3566 14.717 92.571 14.2581 92.7242 14.1664C92.8774 14.044 93 12.6981 93 11.1381C93 7.65093 92.2953 5.96854 89.6909 3.3379C87.8219 1.44138 86.7802 0.860194 84.0532 0.248415C82.4906 -0.118652 82.0004 -0.0880591 79.9169 0.401363C78.5994 0.707253 77.3432 1.13549 77.1287 1.38021C76.9142 1.59433 76.6078 1.77786 76.4546 1.77786C75.9338 1.77786 73.9728 4.10262 73.2375 5.63206C72.7166 6.73326 72.4715 7.89565 72.3489 9.70039C72.257 11.1075 72.1038 12.331 72.0119 12.4228C71.92 12.5146 71.2765 12.0557 70.5412 11.3828C66.0065 7.10033 65.0873 6.24384 64.5052 5.84619C63.6166 5.23441 60.9204 5.20382 59.848 5.78501C58.1934 6.6415 49.0016 16.0017 48.3275 17.47C47.8066 18.6935 47.8985 20.1006 48.6645 21.5077Z" fill="#539BD8"/>
</svg>
