<svg width="206" height="70" viewBox="0 0 206 70" fill="none" xmlns="http://www.w3.org/2000/svg">
<path d="M39.6141 0.805091C37.8379 1.60251 35.0205 4.24014 34.163 5.86565C33.0912 7.88987 32.7237 10.8955 33.2137 13.0731C33.6424 14.8826 35.0205 17.2442 36.3067 18.379C37.9604 19.8205 39.9815 20.5566 42.8908 20.7406C44.1464 20.802 45.2182 21.0167 45.2794 21.2007C45.3407 21.3847 44.0851 22.8875 42.4621 24.513C40.839 26.1692 39.2159 27.9481 38.9097 28.5001C38.2054 29.6656 38.0829 32.1805 38.6647 33.2233C39.2772 34.2968 45.8613 41.1055 48.7093 43.6205C51.0673 45.6754 53.7622 45.43 56.4571 42.9151L57.3452 42.087L53.4866 38.2532C51.3735 36.137 49.628 34.2354 49.628 34.0514C49.628 33.5607 66.5935 16.6002 67.0835 16.6002C67.2672 16.6002 69.1047 18.2257 71.1258 20.1886C73.1164 22.1821 74.9538 23.8383 75.1681 23.8996C75.5356 23.9916 76.7299 22.7648 77.4037 21.5687C78.108 20.3419 78.1999 18.5937 77.618 17.3362C76.9443 15.8334 67.7878 6.50972 66.1035 5.62028C64.8173 4.91487 63.2555 4.73086 62.9493 5.25225C62.8574 5.4056 62.5206 5.55895 62.2449 5.55895C61.6631 5.55895 60.6219 6.44838 57.1002 9.88343C55.7221 11.2022 54.4665 12.3064 54.2522 12.3064C54.0378 12.3064 53.9153 11.7236 53.9153 10.8342C53.9153 9.17801 52.9966 4.94555 52.6291 4.94555C52.5066 4.94555 52.3841 4.76152 52.3841 4.54683C52.3841 3.84142 49.9036 1.60251 48.2499 0.805091C45.9532 -0.268361 41.9721 -0.268361 39.6141 0.805091Z" fill="#539BD8"/>
<path d="M128.665 21.5077C129.431 22.8842 130.35 23.7713 131.024 23.8019C131.3 23.8019 133.077 22.2113 135.007 20.2842C136.937 18.3571 138.745 16.7664 138.99 16.7664C139.235 16.7664 143.372 20.6818 148.121 25.4231L156.822 34.1103L152.962 37.9951C150.848 40.1058 149.101 41.9717 149.101 42.1246C149.101 43.0423 152.441 44.9388 154.157 45C154.708 45 155.535 44.8471 156.026 44.6635C156.547 44.4494 159.243 41.9717 162.031 39.1575C166.964 34.1715 168.098 32.6727 168.098 31.0209C168.067 29.7973 166.719 27.809 164.023 25.0254C162.552 23.496 161.142 21.9054 160.867 21.5077L160.407 20.7736L162.031 20.9265C163.961 21.1406 166.688 20.4677 168.557 19.3665C170.181 18.4182 171.989 16.3994 172.234 15.2064C172.357 14.717 172.571 14.2581 172.724 14.1664C172.877 14.044 173 12.6981 173 11.1381C173 7.65093 172.295 5.96854 169.691 3.3379C167.822 1.44138 166.78 0.860194 164.053 0.248415C162.491 -0.118652 162 -0.0880591 159.917 0.401363C158.599 0.707253 157.343 1.13549 157.129 1.38021C156.914 1.59433 156.608 1.77786 156.455 1.77786C155.934 1.77786 153.973 4.10262 153.237 5.63206C152.717 6.73326 152.471 7.89565 152.349 9.70039C152.257 11.1075 152.104 12.331 152.012 12.4228C151.92 12.5146 151.277 12.0557 150.541 11.3828C146.007 7.10033 145.087 6.24384 144.505 5.84619C143.617 5.23441 140.92 5.20382 139.848 5.78501C138.193 6.6415 129.002 16.0017 128.327 17.47C127.807 18.6935 127.899 20.1006 128.665 21.5077Z" fill="#539BD8"/>
<path d="M72.1377 29.4395H74.6387L77.5459 40.3066C77.6729 40.7806 77.7956 41.2546 77.9141 41.7285C78.041 42.2025 78.1553 42.6637 78.2568 43.1123C78.3669 43.5524 78.46 43.9714 78.5361 44.3691C78.6208 44.7669 78.6885 45.1266 78.7393 45.4482C78.7731 45.1266 78.8154 44.7754 78.8662 44.3945C78.917 44.0137 78.9762 43.6159 79.0439 43.2012C79.1117 42.778 79.1836 42.3506 79.2598 41.9189C79.3444 41.4788 79.4333 41.0514 79.5264 40.6367L82.0654 29.4395H84.5918L79.9326 48H77.5459L74.3213 36.0918C74.2028 35.6602 74.0885 35.2158 73.9785 34.7588C73.8685 34.3018 73.7669 33.8743 73.6738 33.4766C73.5723 33.0111 73.4749 32.5583 73.3818 32.1182C73.2887 32.5498 73.1956 32.9984 73.1025 33.4639C73.0179 33.8617 72.9206 34.2975 72.8105 34.7715C72.709 35.2454 72.599 35.7109 72.4805 36.168L69.4082 48H67.0215L62.1211 29.4395H64.6221L67.4531 40.7256C67.5547 41.1149 67.6478 41.5212 67.7324 41.9443C67.8171 42.359 67.8932 42.7738 67.9609 43.1885C68.0371 43.6032 68.1048 44.0052 68.1641 44.3945C68.2233 44.7754 68.2741 45.1266 68.3164 45.4482C68.3587 45.1351 68.4095 44.7712 68.4688 44.3564C68.5365 43.9417 68.6126 43.5059 68.6973 43.0488C68.7819 42.5918 68.8708 42.1305 68.9639 41.665C69.0654 41.1911 69.1712 40.7467 69.2812 40.332L72.1377 29.4395ZM92.0312 48.2539C91.1003 48.2539 90.2497 48.0973 89.4795 47.7842C88.7093 47.471 88.0449 47.014 87.4863 46.4131C86.9362 45.8122 86.5088 45.0674 86.2041 44.1787C85.8994 43.29 85.7471 42.2744 85.7471 41.1318C85.7471 39.9808 85.8867 38.9525 86.166 38.0469C86.4453 37.1413 86.8389 36.3753 87.3467 35.749C87.8545 35.1143 88.4596 34.6318 89.1621 34.3018C89.873 33.9717 90.6559 33.8066 91.5107 33.8066C92.3486 33.8066 93.1019 33.959 93.7705 34.2637C94.4391 34.5599 95.0062 34.9831 95.4717 35.5332C95.9372 36.0749 96.2926 36.7308 96.5381 37.501C96.792 38.2627 96.9189 39.109 96.9189 40.04V41.4746H88.1338C88.1761 43.1081 88.5189 44.3099 89.1621 45.0801C89.8138 45.8503 90.7786 46.2354 92.0566 46.2354C92.4883 46.2354 92.8861 46.2142 93.25 46.1719C93.6224 46.1296 93.9779 46.0703 94.3164 45.9941C94.6634 45.9095 94.9977 45.8079 95.3193 45.6895C95.641 45.5625 95.9668 45.4229 96.2969 45.2705V47.3271C95.9583 47.488 95.624 47.6276 95.2939 47.7461C94.9723 47.8646 94.638 47.9619 94.291 48.0381C93.9525 48.1143 93.597 48.1693 93.2246 48.2031C92.8607 48.237 92.4629 48.2539 92.0312 48.2539ZM91.46 35.7236C90.4951 35.7236 89.7292 36.0537 89.1621 36.7139C88.6035 37.374 88.2777 38.3346 88.1846 39.5957H94.4307C94.4307 39.0202 94.3714 38.4954 94.2529 38.0215C94.1429 37.5391 93.9652 37.1286 93.7197 36.79C93.4827 36.4515 93.1781 36.1891 92.8057 36.0029C92.4333 35.8167 91.9847 35.7236 91.46 35.7236Z" fill="#9ADCFF"/>
<path d="M111.874 34.873C111.874 35.6432 111.756 36.3838 111.519 37.0947C111.29 37.8057 110.909 38.4362 110.376 38.9863C109.843 39.528 109.136 39.9639 108.256 40.2939C107.384 40.6156 106.305 40.7764 105.019 40.7764H103.114V48H100.753V29.4395H105.349C106.483 29.4395 107.46 29.5622 108.281 29.8076C109.102 30.0446 109.779 30.3958 110.312 30.8613C110.846 31.3184 111.239 31.8854 111.493 32.5625C111.747 33.2396 111.874 34.0098 111.874 34.873ZM103.114 38.7705H104.752C105.539 38.7705 106.225 38.7028 106.809 38.5674C107.401 38.432 107.888 38.2161 108.269 37.9199C108.658 37.6152 108.95 37.2259 109.145 36.752C109.339 36.2695 109.437 35.6855 109.437 35C109.437 33.7982 109.09 32.9095 108.396 32.334C107.701 31.75 106.618 31.458 105.146 31.458H103.114V38.7705ZM123.274 48L122.805 46.0703H122.703C122.424 46.4512 122.145 46.7812 121.865 47.0605C121.586 47.3314 121.281 47.5557 120.951 47.7334C120.621 47.9111 120.253 48.0423 119.847 48.127C119.44 48.2116 118.971 48.2539 118.438 48.2539C117.854 48.2539 117.316 48.1693 116.825 48C116.334 47.8392 115.907 47.5895 115.543 47.251C115.188 46.904 114.908 46.4723 114.705 45.9561C114.502 45.4313 114.4 44.8135 114.4 44.1025C114.4 42.7145 114.887 41.6481 115.86 40.9033C116.842 40.1585 118.332 39.7523 120.329 39.6846L122.665 39.5957V38.7197C122.665 38.1527 122.602 37.6787 122.475 37.2979C122.356 36.917 122.178 36.6123 121.941 36.3838C121.713 36.1468 121.425 35.9775 121.078 35.876C120.74 35.7744 120.35 35.7236 119.91 35.7236C119.208 35.7236 118.552 35.8252 117.942 36.0283C117.341 36.2314 116.762 36.4769 116.203 36.7646L115.391 35.0254C116.017 34.6868 116.715 34.3991 117.485 34.1621C118.256 33.9251 119.064 33.8066 119.91 33.8066C120.773 33.8066 121.518 33.8955 122.145 34.0732C122.779 34.2425 123.3 34.5176 123.706 34.8984C124.121 35.2708 124.43 35.749 124.633 36.333C124.836 36.917 124.938 37.6237 124.938 38.4531V48H123.274ZM119.034 46.3877C119.55 46.3877 120.029 46.3073 120.469 46.1465C120.909 45.9857 121.29 45.7445 121.611 45.4229C121.933 45.0928 122.183 44.6823 122.36 44.1914C122.547 43.6921 122.64 43.1081 122.64 42.4395V41.1826L120.824 41.2715C120.062 41.3053 119.424 41.39 118.907 41.5254C118.391 41.6608 117.976 41.8512 117.663 42.0967C117.358 42.3337 117.138 42.6257 117.003 42.9727C116.868 43.3112 116.8 43.6963 116.8 44.1279C116.8 44.9066 117.003 45.4779 117.409 45.8418C117.824 46.2057 118.366 46.3877 119.034 46.3877ZM131.539 48H129.229V34.0605H131.539V48ZM129.051 30.29C129.051 29.7822 129.178 29.4141 129.432 29.1855C129.694 28.957 130.016 28.8428 130.396 28.8428C130.583 28.8428 130.756 28.8724 130.917 28.9316C131.086 28.9824 131.23 29.0671 131.349 29.1855C131.476 29.304 131.573 29.4564 131.641 29.6426C131.717 29.8203 131.755 30.0361 131.755 30.29C131.755 30.7809 131.619 31.1491 131.349 31.3945C131.086 31.6315 130.769 31.75 130.396 31.75C130.016 31.75 129.694 31.6315 129.432 31.3945C129.178 31.1576 129.051 30.7894 129.051 30.29ZM141.987 33.8066C142.233 33.8066 142.508 33.8193 142.812 33.8447C143.117 33.8617 143.38 33.8913 143.6 33.9336L143.295 36.0664C143.058 36.0241 142.812 35.9902 142.559 35.9648C142.313 35.931 142.08 35.9141 141.86 35.9141C141.327 35.9141 140.84 36.0241 140.4 36.2441C139.96 36.4557 139.579 36.7646 139.258 37.1709C138.945 37.5687 138.699 38.0511 138.521 38.6182C138.352 39.1768 138.268 39.7988 138.268 40.4844V48H135.957V34.0605H137.836L138.115 36.6123H138.217C138.428 36.2484 138.653 35.8971 138.89 35.5586C139.135 35.2201 139.406 34.9238 139.702 34.6699C140.007 34.4076 140.345 34.2002 140.718 34.0479C141.09 33.887 141.513 33.8066 141.987 33.8066Z" fill="#CF9176"/>
</svg>
