<svg width="206" height="89" viewBox="0 0 206 89" fill="none" xmlns="http://www.w3.org/2000/svg">
<path d="M62.6141 0.805091C60.8379 1.60251 58.0205 4.24014 57.163 5.86565C56.0912 7.88987 55.7237 10.8955 56.2137 13.0731C56.6424 14.8826 58.0205 17.2442 59.3067 18.379C60.9604 19.8205 62.9815 20.5566 65.8908 20.7406C67.1464 20.802 68.2182 21.0167 68.2794 21.2007C68.3407 21.3847 67.0851 22.8875 65.4621 24.513C63.839 26.1692 62.2159 27.9481 61.9097 28.5001C61.2054 29.6656 61.0829 32.1805 61.6647 33.2233C62.2772 34.2968 68.8613 41.1055 71.7093 43.6205C74.0673 45.6754 76.7622 45.43 79.4571 42.9151L80.3452 42.087L76.4866 38.2532C74.3735 36.137 72.628 34.2354 72.628 34.0514C72.628 33.5607 89.5935 16.6002 90.0835 16.6002C90.2672 16.6002 92.1047 18.2257 94.1258 20.1886C96.1164 22.1821 97.9538 23.8383 98.1681 23.8996C98.5356 23.9916 99.7299 22.7648 100.404 21.5687C101.108 20.3419 101.2 18.5937 100.618 17.3362C99.9443 15.8334 90.7878 6.50972 89.1035 5.62028C87.8173 4.91487 86.2555 4.73086 85.9493 5.25225C85.8574 5.4056 85.5206 5.55895 85.2449 5.55895C84.6631 5.55895 83.6219 6.44838 80.1002 9.88343C78.7221 11.2022 77.4665 12.3064 77.2522 12.3064C77.0378 12.3064 76.9153 11.7236 76.9153 10.8342C76.9153 9.17801 75.9966 4.94555 75.6291 4.94555C75.5066 4.94555 75.3841 4.76152 75.3841 4.54683C75.3841 3.84142 72.9036 1.60251 71.2499 0.805091C68.9532 -0.268361 64.9721 -0.268361 62.6141 0.805091Z" fill="#539BD8"/>
<path d="M104.665 21.5077C105.431 22.8842 106.35 23.7713 107.024 23.8019C107.3 23.8019 109.077 22.2113 111.007 20.2842C112.937 18.3571 114.745 16.7664 114.99 16.7664C115.235 16.7664 119.372 20.6818 124.121 25.4231L132.822 34.1103L128.962 37.9951C126.848 40.1058 125.101 41.9717 125.101 42.1246C125.101 43.0423 128.441 44.9388 130.157 45C130.708 45 131.535 44.8471 132.026 44.6635C132.547 44.4494 135.243 41.9717 138.031 39.1575C142.964 34.1715 144.098 32.6727 144.098 31.0209C144.067 29.7973 142.719 27.809 140.023 25.0254C138.552 23.496 137.142 21.9054 136.867 21.5077L136.407 20.7736L138.031 20.9265C139.961 21.1406 142.688 20.4677 144.557 19.3665C146.181 18.4182 147.989 16.3994 148.234 15.2064C148.357 14.717 148.571 14.2581 148.724 14.1664C148.877 14.044 149 12.6981 149 11.1381C149 7.65093 148.295 5.96854 145.691 3.3379C143.822 1.44138 142.78 0.860194 140.053 0.248415C138.491 -0.118652 138 -0.0880591 135.917 0.401363C134.599 0.707253 133.343 1.13549 133.129 1.38021C132.914 1.59433 132.608 1.77786 132.455 1.77786C131.934 1.77786 129.973 4.10262 129.237 5.63206C128.717 6.73326 128.471 7.89565 128.349 9.70039C128.257 11.1075 128.104 12.331 128.012 12.4228C127.92 12.5146 127.277 12.0557 126.541 11.3828C122.007 7.10033 121.087 6.24384 120.505 5.84619C119.617 5.23441 116.92 5.20382 115.848 5.78501C114.193 6.6415 105.002 16.0017 104.327 17.47C103.807 18.6935 103.899 20.1006 104.665 21.5077Z" fill="#539BD8"/>
<path d="M71.6377 48.4395H74.1387L77.0459 59.3066C77.1729 59.7806 77.2956 60.2546 77.4141 60.7285C77.541 61.2025 77.6553 61.6637 77.7568 62.1123C77.8669 62.5524 77.96 62.9714 78.0361 63.3691C78.1208 63.7669 78.1885 64.1266 78.2393 64.4482C78.2731 64.1266 78.3154 63.7754 78.3662 63.3945C78.417 63.0137 78.4762 62.6159 78.5439 62.2012C78.6117 61.778 78.6836 61.3506 78.7598 60.9189C78.8444 60.4788 78.9333 60.0514 79.0264 59.6367L81.5654 48.4395H84.0918L79.4326 67H77.0459L73.8213 55.0918C73.7028 54.6602 73.5885 54.2158 73.4785 53.7588C73.3685 53.3018 73.2669 52.8743 73.1738 52.4766C73.0723 52.0111 72.9749 51.5583 72.8818 51.1182C72.7887 51.5498 72.6956 51.9984 72.6025 52.4639C72.5179 52.8617 72.4206 53.2975 72.3105 53.7715C72.209 54.2454 72.099 54.7109 71.9805 55.168L68.9082 67H66.5215L61.6211 48.4395H64.1221L66.9531 59.7256C67.0547 60.1149 67.1478 60.5212 67.2324 60.9443C67.3171 61.359 67.3932 61.7738 67.4609 62.1885C67.5371 62.6032 67.6048 63.0052 67.6641 63.3945C67.7233 63.7754 67.7741 64.1266 67.8164 64.4482C67.8587 64.1351 67.9095 63.7712 67.9688 63.3564C68.0365 62.9417 68.1126 62.5059 68.1973 62.0488C68.2819 61.5918 68.3708 61.1305 68.4639 60.665C68.5654 60.1911 68.6712 59.7467 68.7812 59.332L71.6377 48.4395ZM91.5312 67.2539C90.6003 67.2539 89.7497 67.0973 88.9795 66.7842C88.2093 66.471 87.5449 66.014 86.9863 65.4131C86.4362 64.8122 86.0088 64.0674 85.7041 63.1787C85.3994 62.29 85.2471 61.2744 85.2471 60.1318C85.2471 58.9808 85.3867 57.9525 85.666 57.0469C85.9453 56.1413 86.3389 55.3753 86.8467 54.749C87.3545 54.1143 87.9596 53.6318 88.6621 53.3018C89.373 52.9717 90.1559 52.8066 91.0107 52.8066C91.8486 52.8066 92.6019 52.959 93.2705 53.2637C93.9391 53.5599 94.5062 53.9831 94.9717 54.5332C95.4372 55.0749 95.7926 55.7308 96.0381 56.501C96.292 57.2627 96.4189 58.109 96.4189 59.04V60.4746H87.6338C87.6761 62.1081 88.0189 63.3099 88.6621 64.0801C89.3138 64.8503 90.2786 65.2354 91.5566 65.2354C91.9883 65.2354 92.3861 65.2142 92.75 65.1719C93.1224 65.1296 93.4779 65.0703 93.8164 64.9941C94.1634 64.9095 94.4977 64.8079 94.8193 64.6895C95.141 64.5625 95.4668 64.4229 95.7969 64.2705V66.3271C95.4583 66.488 95.124 66.6276 94.7939 66.7461C94.4723 66.8646 94.138 66.9619 93.791 67.0381C93.4525 67.1143 93.097 67.1693 92.7246 67.2031C92.3607 67.237 91.9629 67.2539 91.5312 67.2539ZM90.96 54.7236C89.9951 54.7236 89.2292 55.0537 88.6621 55.7139C88.1035 56.374 87.7777 57.3346 87.6846 58.5957H93.9307C93.9307 58.0202 93.8714 57.4954 93.7529 57.0215C93.6429 56.5391 93.4652 56.1286 93.2197 55.79C92.9827 55.4515 92.6781 55.1891 92.3057 55.0029C91.9333 54.8167 91.4847 54.7236 90.96 54.7236Z" fill="#9ADCFF"/>
<path d="M111.374 53.873C111.374 54.6432 111.256 55.3838 111.019 56.0947C110.79 56.8057 110.409 57.4362 109.876 57.9863C109.343 58.528 108.636 58.9639 107.756 59.2939C106.884 59.6156 105.805 59.7764 104.519 59.7764H102.614V67H100.253V48.4395H104.849C105.983 48.4395 106.96 48.5622 107.781 48.8076C108.602 49.0446 109.279 49.3958 109.812 49.8613C110.346 50.3184 110.739 50.8854 110.993 51.5625C111.247 52.2396 111.374 53.0098 111.374 53.873ZM102.614 57.7705H104.252C105.039 57.7705 105.725 57.7028 106.309 57.5674C106.901 57.432 107.388 57.2161 107.769 56.9199C108.158 56.6152 108.45 56.2259 108.645 55.752C108.839 55.2695 108.937 54.6855 108.937 54C108.937 52.7982 108.59 51.9095 107.896 51.334C107.201 50.75 106.118 50.458 104.646 50.458H102.614V57.7705ZM122.774 67L122.305 65.0703H122.203C121.924 65.4512 121.645 65.7812 121.365 66.0605C121.086 66.3314 120.781 66.5557 120.451 66.7334C120.121 66.9111 119.753 67.0423 119.347 67.127C118.94 67.2116 118.471 67.2539 117.938 67.2539C117.354 67.2539 116.816 67.1693 116.325 67C115.834 66.8392 115.407 66.5895 115.043 66.251C114.688 65.904 114.408 65.4723 114.205 64.9561C114.002 64.4313 113.9 63.8135 113.9 63.1025C113.9 61.7145 114.387 60.6481 115.36 59.9033C116.342 59.1585 117.832 58.7523 119.829 58.6846L122.165 58.5957V57.7197C122.165 57.1527 122.102 56.6787 121.975 56.2979C121.856 55.917 121.678 55.6123 121.441 55.3838C121.213 55.1468 120.925 54.9775 120.578 54.876C120.24 54.7744 119.85 54.7236 119.41 54.7236C118.708 54.7236 118.052 54.8252 117.442 55.0283C116.841 55.2314 116.262 55.4769 115.703 55.7646L114.891 54.0254C115.517 53.6868 116.215 53.3991 116.985 53.1621C117.756 52.9251 118.564 52.8066 119.41 52.8066C120.273 52.8066 121.018 52.8955 121.645 53.0732C122.279 53.2425 122.8 53.5176 123.206 53.8984C123.621 54.2708 123.93 54.749 124.133 55.333C124.336 55.917 124.438 56.6237 124.438 57.4531V67H122.774ZM118.534 65.3877C119.05 65.3877 119.529 65.3073 119.969 65.1465C120.409 64.9857 120.79 64.7445 121.111 64.4229C121.433 64.0928 121.683 63.6823 121.86 63.1914C122.047 62.6921 122.14 62.1081 122.14 61.4395V60.1826L120.324 60.2715C119.562 60.3053 118.924 60.39 118.407 60.5254C117.891 60.6608 117.476 60.8512 117.163 61.0967C116.858 61.3337 116.638 61.6257 116.503 61.9727C116.368 62.3112 116.3 62.6963 116.3 63.1279C116.3 63.9066 116.503 64.4779 116.909 64.8418C117.324 65.2057 117.866 65.3877 118.534 65.3877ZM131.039 67H128.729V53.0605H131.039V67ZM128.551 49.29C128.551 48.7822 128.678 48.4141 128.932 48.1855C129.194 47.957 129.516 47.8428 129.896 47.8428C130.083 47.8428 130.256 47.8724 130.417 47.9316C130.586 47.9824 130.73 48.0671 130.849 48.1855C130.976 48.304 131.073 48.4564 131.141 48.6426C131.217 48.8203 131.255 49.0361 131.255 49.29C131.255 49.7809 131.119 50.1491 130.849 50.3945C130.586 50.6315 130.269 50.75 129.896 50.75C129.516 50.75 129.194 50.6315 128.932 50.3945C128.678 50.1576 128.551 49.7894 128.551 49.29ZM141.487 52.8066C141.733 52.8066 142.008 52.8193 142.312 52.8447C142.617 52.8617 142.88 52.8913 143.1 52.9336L142.795 55.0664C142.558 55.0241 142.312 54.9902 142.059 54.9648C141.813 54.931 141.58 54.9141 141.36 54.9141C140.827 54.9141 140.34 55.0241 139.9 55.2441C139.46 55.4557 139.079 55.7646 138.758 56.1709C138.445 56.5687 138.199 57.0511 138.021 57.6182C137.852 58.1768 137.768 58.7988 137.768 59.4844V67H135.457V53.0605H137.336L137.615 55.6123H137.717C137.928 55.2484 138.153 54.8971 138.39 54.5586C138.635 54.2201 138.906 53.9238 139.202 53.6699C139.507 53.4076 139.845 53.2002 140.218 53.0479C140.59 52.887 141.013 52.8066 141.487 52.8066Z" fill="#CF9176"/>
</svg>
