<svg width="206" height="68" viewBox="0 0 206 68" fill="none" xmlns="http://www.w3.org/2000/svg">
<path d="M33.6141 0.805091C31.8379 1.60251 29.0205 4.24014 28.163 5.86565C27.0912 7.88987 26.7237 10.8955 27.2137 13.0731C27.6424 14.8826 29.0205 17.2442 30.3067 18.379C31.9604 19.8205 33.9815 20.5566 36.8908 20.7406C38.1464 20.802 39.2182 21.0167 39.2794 21.2007C39.3407 21.3847 38.0851 22.8875 36.4621 24.513C34.839 26.1692 33.2159 27.9481 32.9097 28.5001C32.2054 29.6656 32.0829 32.1805 32.6647 33.2233C33.2772 34.2968 39.8613 41.1055 42.7093 43.6205C45.0673 45.6754 47.7622 45.43 50.4571 42.9151L51.3452 42.087L47.4866 38.2532C45.3735 36.137 43.628 34.2354 43.628 34.0514C43.628 33.5607 60.5935 16.6002 61.0835 16.6002C61.2672 16.6002 63.1047 18.2257 65.1258 20.1886C67.1164 22.1821 68.9538 23.8383 69.1681 23.8996C69.5356 23.9916 70.7299 22.7648 71.4037 21.5687C72.108 20.3419 72.1999 18.5937 71.618 17.3362C70.9443 15.8334 61.7878 6.50972 60.1035 5.62028C58.8173 4.91487 57.2555 4.73086 56.9493 5.25225C56.8574 5.4056 56.5206 5.55895 56.2449 5.55895C55.6631 5.55895 54.6219 6.44838 51.1002 9.88343C49.7221 11.2022 48.4665 12.3064 48.2522 12.3064C48.0378 12.3064 47.9153 11.7236 47.9153 10.8342C47.9153 9.17801 46.9966 4.94555 46.6291 4.94555C46.5066 4.94555 46.3841 4.76152 46.3841 4.54683C46.3841 3.84142 43.9036 1.60251 42.2499 0.805091C39.9532 -0.268361 35.9721 -0.268361 33.6141 0.805091Z" fill="#539BD8"/>
<path d="M135.665 21.5077C136.431 22.8842 137.35 23.7713 138.024 23.8019C138.3 23.8019 140.077 22.2113 142.007 20.2842C143.937 18.3571 145.745 16.7664 145.99 16.7664C146.235 16.7664 150.372 20.6818 155.121 25.4231L163.822 34.1103L159.962 37.9951C157.848 40.1058 156.101 41.9717 156.101 42.1246C156.101 43.0423 159.441 44.9388 161.157 45C161.708 45 162.535 44.8471 163.026 44.6635C163.547 44.4494 166.243 41.9717 169.031 39.1575C173.964 34.1715 175.098 32.6727 175.098 31.0209C175.067 29.7973 173.719 27.809 171.023 25.0254C169.552 23.496 168.142 21.9054 167.867 21.5077L167.407 20.7736L169.031 20.9265C170.961 21.1406 173.688 20.4677 175.557 19.3665C177.181 18.4182 178.989 16.3994 179.234 15.2064C179.357 14.717 179.571 14.2581 179.724 14.1664C179.877 14.044 180 12.6981 180 11.1381C180 7.65093 179.295 5.96854 176.691 3.3379C174.822 1.44138 173.78 0.860194 171.053 0.248415C169.491 -0.118652 169 -0.0880605 166.917 0.401362C165.599 0.707251 164.343 1.13549 164.129 1.38021C163.914 1.59433 163.608 1.77786 163.455 1.77786C162.934 1.77786 160.973 4.10262 160.237 5.63206C159.717 6.73326 159.471 7.89565 159.349 9.70039C159.257 11.1075 159.104 12.331 159.012 12.4228C158.92 12.5146 158.277 12.0557 157.541 11.3828C153.007 7.10033 152.087 6.24385 151.505 5.84619C150.617 5.23441 147.92 5.20382 146.848 5.78501C145.193 6.6415 136.002 16.0017 135.327 17.47C134.807 18.6935 134.899 20.1006 135.665 21.5077Z" fill="#539BD8"/>
<path d="M65.2695 27.4395H67.7705L70.6777 38.3066C70.8047 38.7806 70.9274 39.2546 71.0459 39.7285C71.1729 40.2025 71.2871 40.6637 71.3887 41.1123C71.4987 41.5524 71.5918 41.9714 71.668 42.3691C71.7526 42.7669 71.8203 43.1266 71.8711 43.4482C71.9049 43.1266 71.9473 42.7754 71.998 42.3945C72.0488 42.0137 72.1081 41.6159 72.1758 41.2012C72.2435 40.778 72.3154 40.3506 72.3916 39.9189C72.4762 39.4788 72.5651 39.0514 72.6582 38.6367L75.1973 27.4395H77.7236L73.0645 46H70.6777L67.4531 34.0918C67.3346 33.6602 67.2204 33.2158 67.1104 32.7588C67.0003 32.3018 66.8988 31.8743 66.8057 31.4766C66.7041 31.0111 66.6068 30.5583 66.5137 30.1182C66.4206 30.5498 66.3275 30.9984 66.2344 31.4639C66.1497 31.8617 66.0524 32.2975 65.9424 32.7715C65.8408 33.2454 65.7308 33.7109 65.6123 34.168L62.54 46H60.1533L55.2529 27.4395H57.7539L60.585 38.7256C60.6865 39.1149 60.7796 39.5212 60.8643 39.9443C60.9489 40.359 61.0251 40.7738 61.0928 41.1885C61.1689 41.6032 61.2367 42.0052 61.2959 42.3945C61.3551 42.7754 61.4059 43.1266 61.4482 43.4482C61.4906 43.1351 61.5413 42.7712 61.6006 42.3564C61.6683 41.9417 61.7445 41.5059 61.8291 41.0488C61.9137 40.5918 62.0026 40.1305 62.0957 39.665C62.1973 39.1911 62.3031 38.7467 62.4131 38.332L65.2695 27.4395ZM85.1631 46.2539C84.2321 46.2539 83.3815 46.0973 82.6113 45.7842C81.8411 45.471 81.1768 45.014 80.6182 44.4131C80.068 43.8122 79.6406 43.0674 79.3359 42.1787C79.0312 41.29 78.8789 40.2744 78.8789 39.1318C78.8789 37.9808 79.0186 36.9525 79.2979 36.0469C79.5771 35.1413 79.9707 34.3753 80.4785 33.749C80.9863 33.1143 81.5915 32.6318 82.2939 32.3018C83.0049 31.9717 83.7878 31.8066 84.6426 31.8066C85.4805 31.8066 86.2337 31.959 86.9023 32.2637C87.571 32.5599 88.138 32.9831 88.6035 33.5332C89.069 34.0749 89.4245 34.7308 89.6699 35.501C89.9238 36.2627 90.0508 37.109 90.0508 38.04V39.4746H81.2656C81.3079 41.1081 81.6507 42.3099 82.2939 43.0801C82.9456 43.8503 83.9105 44.2354 85.1885 44.2354C85.6201 44.2354 86.0179 44.2142 86.3818 44.1719C86.7542 44.1296 87.1097 44.0703 87.4482 43.9941C87.7952 43.9095 88.1296 43.8079 88.4512 43.6895C88.7728 43.5625 89.0986 43.4229 89.4287 43.2705V45.3271C89.0902 45.488 88.7559 45.6276 88.4258 45.7461C88.1042 45.8646 87.7699 45.9619 87.4229 46.0381C87.0843 46.1143 86.7288 46.1693 86.3564 46.2031C85.9925 46.237 85.5947 46.2539 85.1631 46.2539ZM84.5918 33.7236C83.627 33.7236 82.861 34.0537 82.2939 34.7139C81.7354 35.374 81.4095 36.3346 81.3164 37.5957H87.5625C87.5625 37.0202 87.5033 36.4954 87.3848 36.0215C87.2747 35.5391 87.097 35.1286 86.8516 34.79C86.6146 34.4515 86.3099 34.1891 85.9375 34.0029C85.5651 33.8167 85.1165 33.7236 84.5918 33.7236ZM93.2246 44.5908C93.2246 44.2692 93.2669 43.9984 93.3516 43.7783C93.4362 43.5498 93.5505 43.3678 93.6943 43.2324C93.8382 43.0885 94.0075 42.987 94.2021 42.9277C94.3968 42.86 94.6084 42.8262 94.8369 42.8262C95.057 42.8262 95.2643 42.86 95.459 42.9277C95.6621 42.987 95.8356 43.0885 95.9795 43.2324C96.1234 43.3678 96.2376 43.5498 96.3223 43.7783C96.4069 43.9984 96.4492 44.2692 96.4492 44.5908C96.4492 44.904 96.4069 45.1748 96.3223 45.4033C96.2376 45.6234 96.1234 45.8053 95.9795 45.9492C95.8356 46.0931 95.6621 46.1989 95.459 46.2666C95.2643 46.3343 95.057 46.3682 94.8369 46.3682C94.6084 46.3682 94.3968 46.3343 94.2021 46.2666C94.0075 46.1989 93.8382 46.0931 93.6943 45.9492C93.5505 45.8053 93.4362 45.6234 93.3516 45.4033C93.2669 45.1748 93.2246 44.904 93.2246 44.5908ZM93.2246 33.4697C93.2246 33.1396 93.2669 32.8646 93.3516 32.6445C93.4362 32.416 93.5505 32.234 93.6943 32.0986C93.8382 31.9548 94.0075 31.8532 94.2021 31.7939C94.3968 31.7347 94.6084 31.7051 94.8369 31.7051C95.057 31.7051 95.2643 31.7347 95.459 31.7939C95.6621 31.8532 95.8356 31.9548 95.9795 32.0986C96.1234 32.234 96.2376 32.416 96.3223 32.6445C96.4069 32.8646 96.4492 33.1396 96.4492 33.4697C96.4492 33.7829 96.4069 34.0495 96.3223 34.2695C96.2376 34.4896 96.1234 34.6715 95.9795 34.8154C95.8356 34.9593 95.6621 35.0651 95.459 35.1328C95.2643 35.2005 95.057 35.2344 94.8369 35.2344C94.6084 35.2344 94.3968 35.2005 94.2021 35.1328C94.0075 35.0651 93.8382 34.9593 93.6943 34.8154C93.5505 34.6715 93.4362 34.4896 93.3516 34.2695C93.2669 34.0495 93.2246 33.7829 93.2246 33.4697Z" fill="#9ADCFF"/>
<path d="M118.742 32.873C118.742 33.6432 118.624 34.3838 118.387 35.0947C118.158 35.8057 117.777 36.4362 117.244 36.9863C116.711 37.528 116.004 37.9639 115.124 38.2939C114.252 38.6156 113.173 38.7764 111.887 38.7764H109.982V46H107.621V27.4395H112.217C113.351 27.4395 114.328 27.5622 115.149 27.8076C115.97 28.0446 116.647 28.3958 117.181 28.8613C117.714 29.3184 118.107 29.8854 118.361 30.5625C118.615 31.2396 118.742 32.0098 118.742 32.873ZM109.982 36.7705H111.62C112.407 36.7705 113.093 36.7028 113.677 36.5674C114.269 36.432 114.756 36.2161 115.137 35.9199C115.526 35.6152 115.818 35.2259 116.013 34.752C116.207 34.2695 116.305 33.6855 116.305 33C116.305 31.7982 115.958 30.9095 115.264 30.334C114.57 29.75 113.486 29.458 112.014 29.458H109.982V36.7705ZM130.143 46L129.673 44.0703H129.571C129.292 44.4512 129.013 44.7812 128.733 45.0605C128.454 45.3314 128.149 45.5557 127.819 45.7334C127.489 45.9111 127.121 46.0423 126.715 46.127C126.309 46.2116 125.839 46.2539 125.306 46.2539C124.722 46.2539 124.184 46.1693 123.693 46C123.202 45.8392 122.775 45.5895 122.411 45.251C122.056 44.904 121.776 44.4723 121.573 43.9561C121.37 43.4313 121.269 42.8135 121.269 42.1025C121.269 40.7145 121.755 39.6481 122.729 38.9033C123.71 38.1585 125.2 37.7523 127.197 37.6846L129.533 37.5957V36.7197C129.533 36.1527 129.47 35.6787 129.343 35.2979C129.224 34.917 129.047 34.6123 128.81 34.3838C128.581 34.1468 128.293 33.9775 127.946 33.876C127.608 33.7744 127.218 33.7236 126.778 33.7236C126.076 33.7236 125.42 33.8252 124.811 34.0283C124.21 34.2314 123.63 34.4769 123.071 34.7646L122.259 33.0254C122.885 32.6868 123.583 32.3991 124.354 32.1621C125.124 31.9251 125.932 31.8066 126.778 31.8066C127.642 31.8066 128.386 31.8955 129.013 32.0732C129.647 32.2425 130.168 32.5176 130.574 32.8984C130.989 33.2708 131.298 33.749 131.501 34.333C131.704 34.917 131.806 35.6237 131.806 36.4531V46H130.143ZM125.902 44.3877C126.419 44.3877 126.897 44.3073 127.337 44.1465C127.777 43.9857 128.158 43.7445 128.479 43.4229C128.801 43.0928 129.051 42.6823 129.229 42.1914C129.415 41.6921 129.508 41.1081 129.508 40.4395V39.1826L127.692 39.2715C126.931 39.3053 126.292 39.39 125.775 39.5254C125.259 39.6608 124.844 39.8512 124.531 40.0967C124.227 40.3337 124.007 40.6257 123.871 40.9727C123.736 41.3112 123.668 41.6963 123.668 42.1279C123.668 42.9066 123.871 43.4779 124.277 43.8418C124.692 44.2057 125.234 44.3877 125.902 44.3877ZM138.407 46H136.097V32.0605H138.407V46ZM135.919 28.29C135.919 27.7822 136.046 27.4141 136.3 27.1855C136.562 26.957 136.884 26.8428 137.265 26.8428C137.451 26.8428 137.624 26.8724 137.785 26.9316C137.954 26.9824 138.098 27.0671 138.217 27.1855C138.344 27.304 138.441 27.4564 138.509 27.6426C138.585 27.8203 138.623 28.0361 138.623 28.29C138.623 28.7809 138.488 29.1491 138.217 29.3945C137.954 29.6315 137.637 29.75 137.265 29.75C136.884 29.75 136.562 29.6315 136.3 29.3945C136.046 29.1576 135.919 28.7894 135.919 28.29ZM148.855 31.8066C149.101 31.8066 149.376 31.8193 149.681 31.8447C149.985 31.8617 150.248 31.8913 150.468 31.9336L150.163 34.0664C149.926 34.0241 149.681 33.9902 149.427 33.9648C149.181 33.931 148.949 33.9141 148.729 33.9141C148.195 33.9141 147.709 34.0241 147.269 34.2441C146.828 34.4557 146.448 34.7646 146.126 35.1709C145.813 35.5687 145.567 36.0511 145.39 36.6182C145.22 37.1768 145.136 37.7988 145.136 38.4844V46H142.825V32.0605H144.704L144.983 34.6123H145.085C145.297 34.2484 145.521 33.8971 145.758 33.5586C146.003 33.2201 146.274 32.9238 146.57 32.6699C146.875 32.4076 147.214 32.2002 147.586 32.0479C147.958 31.887 148.382 31.8066 148.855 31.8066Z" fill="#CF9176"/>
</svg>
