<svg width="182" height="64" viewBox="0 0 182 64" fill="none" xmlns="http://www.w3.org/2000/svg">
<path d="M52.7695 23.4395H55.2705L58.1777 34.3066C58.3047 34.7806 58.4274 35.2546 58.5459 35.7285C58.6729 36.2025 58.7871 36.6637 58.8887 37.1123C58.9987 37.5524 59.0918 37.9714 59.168 38.3691C59.2526 38.7669 59.3203 39.1266 59.3711 39.4482C59.4049 39.1266 59.4473 38.7754 59.498 38.3945C59.5488 38.0137 59.6081 37.6159 59.6758 37.2012C59.7435 36.778 59.8154 36.3506 59.8916 35.9189C59.9762 35.4788 60.0651 35.0514 60.1582 34.6367L62.6973 23.4395H65.2236L60.5645 42H58.1777L54.9531 30.0918C54.8346 29.6602 54.7204 29.2158 54.6104 28.7588C54.5003 28.3018 54.3988 27.8743 54.3057 27.4766C54.2041 27.0111 54.1068 26.5583 54.0137 26.1182C53.9206 26.5498 53.8275 26.9984 53.7344 27.4639C53.6497 27.8617 53.5524 28.2975 53.4424 28.7715C53.3408 29.2454 53.2308 29.7109 53.1123 30.168L50.04 42H47.6533L42.7529 23.4395H45.2539L48.085 34.7256C48.1865 35.1149 48.2796 35.5212 48.3643 35.9443C48.4489 36.359 48.5251 36.7738 48.5928 37.1885C48.6689 37.6032 48.7367 38.0052 48.7959 38.3945C48.8551 38.7754 48.9059 39.1266 48.9482 39.4482C48.9906 39.1351 49.0413 38.7712 49.1006 38.3564C49.1683 37.9417 49.2445 37.5059 49.3291 37.0488C49.4137 36.5918 49.5026 36.1305 49.5957 35.665C49.6973 35.1911 49.8031 34.7467 49.9131 34.332L52.7695 23.4395ZM72.6631 42.2539C71.7321 42.2539 70.8815 42.0973 70.1113 41.7842C69.3411 41.471 68.6768 41.014 68.1182 40.4131C67.568 39.8122 67.1406 39.0674 66.8359 38.1787C66.5312 37.29 66.3789 36.2744 66.3789 35.1318C66.3789 33.9808 66.5186 32.9525 66.7979 32.0469C67.0771 31.1413 67.4707 30.3753 67.9785 29.749C68.4863 29.1143 69.0915 28.6318 69.7939 28.3018C70.5049 27.9717 71.2878 27.8066 72.1426 27.8066C72.9805 27.8066 73.7337 27.959 74.4023 28.2637C75.071 28.5599 75.638 28.9831 76.1035 29.5332C76.569 30.0749 76.9245 30.7308 77.1699 31.501C77.4238 32.2627 77.5508 33.109 77.5508 34.04V35.4746H68.7656C68.8079 37.1081 69.1507 38.3099 69.7939 39.0801C70.4456 39.8503 71.4105 40.2354 72.6885 40.2354C73.1201 40.2354 73.5179 40.2142 73.8818 40.1719C74.2542 40.1296 74.6097 40.0703 74.9482 39.9941C75.2952 39.9095 75.6296 39.8079 75.9512 39.6895C76.2728 39.5625 76.5986 39.4229 76.9287 39.2705V41.3271C76.5902 41.488 76.2559 41.6276 75.9258 41.7461C75.6042 41.8646 75.2699 41.9619 74.9229 42.0381C74.5843 42.1143 74.2288 42.1693 73.8564 42.2031C73.4925 42.237 73.0947 42.2539 72.6631 42.2539ZM72.0918 29.7236C71.127 29.7236 70.361 30.0537 69.7939 30.7139C69.2354 31.374 68.9095 32.3346 68.8164 33.5957H75.0625C75.0625 33.0202 75.0033 32.4954 74.8848 32.0215C74.7747 31.5391 74.597 31.1286 74.3516 30.79C74.1146 30.4515 73.8099 30.1891 73.4375 30.0029C73.0651 29.8167 72.6165 29.7236 72.0918 29.7236ZM80.7246 40.5908C80.7246 40.2692 80.7669 39.9984 80.8516 39.7783C80.9362 39.5498 81.0505 39.3678 81.1943 39.2324C81.3382 39.0885 81.5075 38.987 81.7021 38.9277C81.8968 38.86 82.1084 38.8262 82.3369 38.8262C82.557 38.8262 82.7643 38.86 82.959 38.9277C83.1621 38.987 83.3356 39.0885 83.4795 39.2324C83.6234 39.3678 83.7376 39.5498 83.8223 39.7783C83.9069 39.9984 83.9492 40.2692 83.9492 40.5908C83.9492 40.904 83.9069 41.1748 83.8223 41.4033C83.7376 41.6234 83.6234 41.8053 83.4795 41.9492C83.3356 42.0931 83.1621 42.1989 82.959 42.2666C82.7643 42.3343 82.557 42.3682 82.3369 42.3682C82.1084 42.3682 81.8968 42.3343 81.7021 42.2666C81.5075 42.1989 81.3382 42.0931 81.1943 41.9492C81.0505 41.8053 80.9362 41.6234 80.8516 41.4033C80.7669 41.1748 80.7246 40.904 80.7246 40.5908ZM80.7246 29.4697C80.7246 29.1396 80.7669 28.8646 80.8516 28.6445C80.9362 28.416 81.0505 28.234 81.1943 28.0986C81.3382 27.9548 81.5075 27.8532 81.7021 27.7939C81.8968 27.7347 82.1084 27.7051 82.3369 27.7051C82.557 27.7051 82.7643 27.7347 82.959 27.7939C83.1621 27.8532 83.3356 27.9548 83.4795 28.0986C83.6234 28.234 83.7376 28.416 83.8223 28.6445C83.9069 28.8646 83.9492 29.1396 83.9492 29.4697C83.9492 29.7829 83.9069 30.0495 83.8223 30.2695C83.7376 30.4896 83.6234 30.6715 83.4795 30.8154C83.3356 30.9593 83.1621 31.0651 82.959 31.1328C82.7643 31.2005 82.557 31.2344 82.3369 31.2344C82.1084 31.2344 81.8968 31.2005 81.7021 31.1328C81.5075 31.0651 81.3382 30.9593 81.1943 30.8154C81.0505 30.6715 80.9362 30.4896 80.8516 30.2695C80.7669 30.0495 80.7246 29.7829 80.7246 29.4697Z" fill="#9ADCFF"/>
<path d="M106.242 28.873C106.242 29.6432 106.124 30.3838 105.887 31.0947C105.658 31.8057 105.277 32.4362 104.744 32.9863C104.211 33.528 103.504 33.9639 102.624 34.2939C101.752 34.6156 100.673 34.7764 99.3867 34.7764H97.4824V42H95.1211V23.4395H99.7168C100.851 23.4395 101.828 23.5622 102.649 23.8076C103.47 24.0446 104.147 24.3958 104.681 24.8613C105.214 25.3184 105.607 25.8854 105.861 26.5625C106.115 27.2396 106.242 28.0098 106.242 28.873ZM97.4824 32.7705H99.1201C99.9072 32.7705 100.593 32.7028 101.177 32.5674C101.769 32.432 102.256 32.2161 102.637 31.9199C103.026 31.6152 103.318 31.2259 103.513 30.752C103.707 30.2695 103.805 29.6855 103.805 29C103.805 27.7982 103.458 26.9095 102.764 26.334C102.07 25.75 100.986 25.458 99.5137 25.458H97.4824V32.7705ZM117.643 42L117.173 40.0703H117.071C116.792 40.4512 116.513 40.7812 116.233 41.0605C115.954 41.3314 115.649 41.5557 115.319 41.7334C114.989 41.9111 114.621 42.0423 114.215 42.127C113.809 42.2116 113.339 42.2539 112.806 42.2539C112.222 42.2539 111.684 42.1693 111.193 42C110.702 41.8392 110.275 41.5895 109.911 41.251C109.556 40.904 109.276 40.4723 109.073 39.9561C108.87 39.4313 108.769 38.8135 108.769 38.1025C108.769 36.7145 109.255 35.6481 110.229 34.9033C111.21 34.1585 112.7 33.7523 114.697 33.6846L117.033 33.5957V32.7197C117.033 32.1527 116.97 31.6787 116.843 31.2979C116.724 30.917 116.547 30.6123 116.31 30.3838C116.081 30.1468 115.793 29.9775 115.446 29.876C115.108 29.7744 114.718 29.7236 114.278 29.7236C113.576 29.7236 112.92 29.8252 112.311 30.0283C111.71 30.2314 111.13 30.4769 110.571 30.7646L109.759 29.0254C110.385 28.6868 111.083 28.3991 111.854 28.1621C112.624 27.9251 113.432 27.8066 114.278 27.8066C115.142 27.8066 115.886 27.8955 116.513 28.0732C117.147 28.2425 117.668 28.5176 118.074 28.8984C118.489 29.2708 118.798 29.749 119.001 30.333C119.204 30.917 119.306 31.6237 119.306 32.4531V42H117.643ZM113.402 40.3877C113.919 40.3877 114.397 40.3073 114.837 40.1465C115.277 39.9857 115.658 39.7445 115.979 39.4229C116.301 39.0928 116.551 38.6823 116.729 38.1914C116.915 37.6921 117.008 37.1081 117.008 36.4395V35.1826L115.192 35.2715C114.431 35.3053 113.792 35.39 113.275 35.5254C112.759 35.6608 112.344 35.8512 112.031 36.0967C111.727 36.3337 111.507 36.6257 111.371 36.9727C111.236 37.3112 111.168 37.6963 111.168 38.1279C111.168 38.9066 111.371 39.4779 111.777 39.8418C112.192 40.2057 112.734 40.3877 113.402 40.3877ZM125.907 42H123.597V28.0605H125.907V42ZM123.419 24.29C123.419 23.7822 123.546 23.4141 123.8 23.1855C124.062 22.957 124.384 22.8428 124.765 22.8428C124.951 22.8428 125.124 22.8724 125.285 22.9316C125.454 22.9824 125.598 23.0671 125.717 23.1855C125.844 23.304 125.941 23.4564 126.009 23.6426C126.085 23.8203 126.123 24.0361 126.123 24.29C126.123 24.7809 125.988 25.1491 125.717 25.3945C125.454 25.6315 125.137 25.75 124.765 25.75C124.384 25.75 124.062 25.6315 123.8 25.3945C123.546 25.1576 123.419 24.7894 123.419 24.29ZM136.355 27.8066C136.601 27.8066 136.876 27.8193 137.181 27.8447C137.485 27.8617 137.748 27.8913 137.968 27.9336L137.663 30.0664C137.426 30.0241 137.181 29.9902 136.927 29.9648C136.681 29.931 136.449 29.9141 136.229 29.9141C135.695 29.9141 135.209 30.0241 134.769 30.2441C134.328 30.4557 133.948 30.7646 133.626 31.1709C133.313 31.5687 133.067 32.0511 132.89 32.6182C132.72 33.1768 132.636 33.7988 132.636 34.4844V42H130.325V28.0605H132.204L132.483 30.6123H132.585C132.797 30.2484 133.021 29.8971 133.258 29.5586C133.503 29.2201 133.774 28.9238 134.07 28.6699C134.375 28.4076 134.714 28.2002 135.086 28.0479C135.458 27.887 135.882 27.8066 136.355 27.8066Z" fill="#CF9176"/>
<path d="M8.24615 27.7122C7.55406 29.532 7.42696 33.3893 7.97005 35.145C8.6435 37.3343 10.509 39.7194 12.3952 40.9128C13.9779 41.8891 16.6222 42.5846 18.3341 42.4775C20.5228 42.3275 22.4724 41.4188 24.6597 39.4918C25.5909 38.6473 26.5006 38.0412 26.674 38.1281C26.8475 38.2149 27.0223 40.1653 27.024 42.4624C27.0475 44.7812 27.1576 47.1867 27.3315 47.7936C27.6575 49.1158 29.3492 50.9807 30.498 51.3067C31.6902 51.6326 41.1603 51.7915 44.9525 51.556C48.0729 51.3416 49.805 49.2626 49.9322 45.5787L49.9746 44.3651L44.5353 44.3827C41.5448 44.3804 38.9659 44.2701 38.8358 44.14C38.4888 43.793 38.4923 19.8037 38.8388 19.4572C38.9687 19.3273 41.4174 19.1774 44.2345 19.1362C47.0517 19.1384 49.522 19.0102 49.717 18.902C50.0419 18.7072 50.0189 16.9952 49.6495 15.673C49.2801 14.3075 48.1089 13.0064 46.8083 12.5286C45.2693 11.9424 32.2018 11.8241 30.3819 12.3862C28.9736 12.7969 27.7391 13.7711 27.8913 14.3563C27.9347 14.5297 27.805 14.8764 27.6101 15.0712C27.1987 15.4827 27.0913 16.8478 27.03 21.767C26.9882 23.674 26.8811 25.3426 26.7295 25.4941C26.5779 25.6457 26.0792 25.3203 25.4503 24.6914C24.2792 23.5203 20.6368 21.1771 20.3769 21.4369C20.2903 21.5235 20.0736 21.48 19.9218 21.3282C19.423 20.8294 16.0858 21.0003 14.3526 21.6057C11.9695 22.4708 9.15447 25.2858 8.24615 27.7122Z" fill="#539BD8"/>
<path d="M135.081 15.6781C134.65 17.1931 134.672 18.4703 135.127 18.9686C135.322 19.1636 137.704 19.2954 140.431 19.2977C143.159 19.2999 145.562 19.4535 145.735 19.6268C145.909 19.8001 146.065 25.4935 146.07 32.2043L146.081 44.5001L140.604 44.5172C137.616 44.5147 135.062 44.5992 134.954 44.7073C134.305 45.3562 135.326 49.0588 136.496 50.3153C136.886 50.7053 137.579 51.1821 138.055 51.399C138.575 51.6159 142.233 51.7705 146.195 51.7521C153.209 51.7146 155.07 51.4564 156.238 50.2884C157.082 49.4015 157.534 47.0423 157.596 43.1675C157.638 41.046 157.766 38.9247 157.852 38.4485L158.046 37.6044L159.086 38.8608C160.3 40.3772 162.704 41.8295 164.804 42.3725C166.623 42.8502 169.329 42.7009 170.345 42.0307C170.778 41.7713 171.254 41.5985 171.428 41.6419C171.622 41.6637 172.661 40.7987 173.764 39.6956C176.23 37.2298 176.921 35.5419 176.94 31.8402C176.959 29.1775 176.633 28.0299 175.138 25.6691C174.292 24.3046 173.924 23.9796 172.105 22.8524C170.957 22.1371 169.766 21.5516 169.441 21.573C169.138 21.5728 168.791 21.4859 168.683 21.3776C168.315 21.0093 165.284 21.2665 163.683 21.828C162.536 22.2384 161.541 22.887 160.178 24.0765C159.118 25.0064 158.144 25.7633 158.015 25.7632C157.885 25.7631 157.754 24.9837 157.71 23.9878C157.532 17.7532 157.487 16.4976 157.357 15.8048C157.161 14.7439 155.276 12.8157 154.107 12.4684C152.331 11.9041 139.213 12.0231 137.698 12.5847C136.465 13.0816 135.535 14.1415 135.081 15.6781Z" fill="#539BD8"/>
</svg>
