<svg width="206" height="64" viewBox="0 0 206 64" fill="none" xmlns="http://www.w3.org/2000/svg">
<path d="M5.24615 27.7123C4.55406 29.5321 4.42696 33.3894 4.97005 35.1451C5.6435 37.3343 7.50897 39.7195 9.39521 40.9128C10.9779 41.8892 13.6222 42.5846 15.3341 42.4776C17.5228 42.3276 19.4724 41.4189 21.6597 39.4918C22.5909 38.6474 23.5006 38.0413 23.674 38.1281C23.8475 38.2149 24.0223 40.1654 24.024 42.4625C24.0475 44.7813 24.1576 47.1868 24.3315 47.7937C24.6575 49.1158 26.3492 50.9808 27.498 51.3067C28.6902 51.6327 38.1603 51.7915 41.9525 51.556C45.0729 51.3417 46.805 49.2626 46.9322 45.5787L46.9746 44.3652L41.5353 44.3828C38.5448 44.3805 35.9659 44.2702 35.8358 44.1401C35.4888 43.7931 35.4923 19.8037 35.8388 19.4573C35.9687 19.3273 38.4174 19.1775 41.2345 19.1363C44.0517 19.1384 46.522 19.0103 46.717 18.9021C47.0419 18.7073 47.0189 16.9953 46.6495 15.6731C46.2801 14.3076 45.1089 13.0064 43.8083 12.5287C42.2693 11.9424 29.2018 11.8242 27.3819 12.3863C25.9736 12.7969 24.7391 13.7712 24.8913 14.3564C24.9347 14.5298 24.805 14.8764 24.6101 15.0713C24.1987 15.4827 24.0913 16.8479 24.03 21.7671C23.9882 23.6741 23.8811 25.3426 23.7295 25.4942C23.5779 25.6458 23.0792 25.3203 22.4503 24.6914C21.2792 23.5203 17.6368 21.1771 17.3769 21.437C17.2903 21.5236 17.0736 21.4801 16.9218 21.3283C16.423 20.8295 13.0858 21.0003 11.3526 21.6058C8.96952 22.4708 6.15447 25.2859 5.24615 27.7123Z" fill="#539BD8"/>
<path d="M159.081 15.6781C158.65 17.1931 158.672 18.4703 159.127 18.9686C159.322 19.1636 161.704 19.2954 164.431 19.2977C167.159 19.2999 169.562 19.4535 169.735 19.6268C169.909 19.8001 170.065 25.4935 170.07 32.2043L170.081 44.5001L164.604 44.5172C161.616 44.5147 159.062 44.5992 158.954 44.7073C158.305 45.3562 159.326 49.0588 160.496 50.3153C160.886 50.7053 161.579 51.1821 162.055 51.399C162.575 51.6159 166.233 51.7705 170.195 51.7521C177.209 51.7146 179.07 51.4564 180.238 50.2884C181.082 49.4015 181.534 47.0423 181.596 43.1675C181.638 41.046 181.766 38.9247 181.852 38.4485L182.046 37.6044L183.086 38.8608C184.3 40.3772 186.704 41.8295 188.804 42.3725C190.623 42.8502 193.329 42.7009 194.345 42.0307C194.778 41.7713 195.254 41.5985 195.428 41.6419C195.622 41.6637 196.661 40.7987 197.764 39.6956C200.23 37.2298 200.921 35.5419 200.94 31.8402C200.959 29.1775 200.633 28.0299 199.138 25.6691C198.292 24.3046 197.924 23.9796 196.105 22.8524C194.957 22.1371 193.766 21.5517 193.441 21.573C193.138 21.5728 192.791 21.4859 192.683 21.3776C192.315 21.0093 189.284 21.2665 187.683 21.828C186.536 22.2384 185.541 22.887 184.178 24.0765C183.118 25.0064 182.144 25.7633 182.015 25.7632C181.885 25.7631 181.754 24.9837 181.71 23.9878C181.532 17.7532 181.487 16.4976 181.357 15.8048C181.161 14.7439 179.276 12.8157 178.107 12.4684C176.331 11.9041 163.213 12.0231 161.698 12.5847C160.465 13.0816 159.535 14.1415 159.081 15.6781Z" fill="#539BD8"/>
<path d="M54.1611 23.4395H56.6621L59.5693 34.3066C59.6963 34.7806 59.819 35.2546 59.9375 35.7285C60.0645 36.2025 60.1787 36.6637 60.2803 37.1123C60.3903 37.5524 60.4834 37.9714 60.5596 38.3691C60.6442 38.7669 60.7119 39.1266 60.7627 39.4482C60.7965 39.1266 60.8389 38.7754 60.8896 38.3945C60.9404 38.0137 60.9997 37.6159 61.0674 37.2012C61.1351 36.778 61.207 36.3506 61.2832 35.9189C61.3678 35.4788 61.4567 35.0514 61.5498 34.6367L64.0889 23.4395H66.6152L61.9561 42H59.5693L56.3447 30.0918C56.2262 29.6602 56.112 29.2158 56.002 28.7588C55.8919 28.3018 55.7904 27.8743 55.6973 27.4766C55.5957 27.0111 55.4984 26.5583 55.4053 26.1182C55.3122 26.5498 55.2191 26.9984 55.126 27.4639C55.0413 27.8617 54.944 28.2975 54.834 28.7715C54.7324 29.2454 54.6224 29.7109 54.5039 30.168L51.4316 42H49.0449L44.1445 23.4395H46.6455L49.4766 34.7256C49.5781 35.1149 49.6712 35.5212 49.7559 35.9443C49.8405 36.359 49.9167 36.7738 49.9844 37.1885C50.0605 37.6032 50.1283 38.0052 50.1875 38.3945C50.2467 38.7754 50.2975 39.1266 50.3398 39.4482C50.3822 39.1351 50.4329 38.7712 50.4922 38.3564C50.5599 37.9417 50.6361 37.5059 50.7207 37.0488C50.8053 36.5918 50.8942 36.1305 50.9873 35.665C51.0889 35.1911 51.1947 34.7467 51.3047 34.332L54.1611 23.4395ZM74.0547 42.2539C73.1237 42.2539 72.2731 42.0973 71.5029 41.7842C70.7327 41.471 70.0684 41.014 69.5098 40.4131C68.9596 39.8122 68.5322 39.0674 68.2275 38.1787C67.9229 37.29 67.7705 36.2744 67.7705 35.1318C67.7705 33.9808 67.9102 32.9525 68.1895 32.0469C68.4688 31.1413 68.8623 30.3753 69.3701 29.749C69.8779 29.1143 70.4831 28.6318 71.1855 28.3018C71.8965 27.9717 72.6794 27.8066 73.5342 27.8066C74.3721 27.8066 75.1253 27.959 75.7939 28.2637C76.4626 28.5599 77.0296 28.9831 77.4951 29.5332C77.9606 30.0749 78.3161 30.7308 78.5615 31.501C78.8154 32.2627 78.9424 33.109 78.9424 34.04V35.4746H70.1572C70.1995 37.1081 70.5423 38.3099 71.1855 39.0801C71.8372 39.8503 72.8021 40.2354 74.0801 40.2354C74.5117 40.2354 74.9095 40.2142 75.2734 40.1719C75.6458 40.1296 76.0013 40.0703 76.3398 39.9941C76.6868 39.9095 77.0212 39.8079 77.3428 39.6895C77.6644 39.5625 77.9902 39.4229 78.3203 39.2705V41.3271C77.9818 41.488 77.6475 41.6276 77.3174 41.7461C76.9958 41.8646 76.6615 41.9619 76.3145 42.0381C75.9759 42.1143 75.6204 42.1693 75.248 42.2031C74.8841 42.237 74.4863 42.2539 74.0547 42.2539ZM73.4834 29.7236C72.5186 29.7236 71.7526 30.0537 71.1855 30.7139C70.627 31.374 70.3011 32.3346 70.208 33.5957H76.4541C76.4541 33.0202 76.3949 32.4954 76.2764 32.0215C76.1663 31.5391 75.9886 31.1286 75.7432 30.79C75.5062 30.4515 75.2015 30.1891 74.8291 30.0029C74.4567 29.8167 74.0081 29.7236 73.4834 29.7236ZM82.1162 40.5908C82.1162 40.2692 82.1585 39.9984 82.2432 39.7783C82.3278 39.5498 82.4421 39.3678 82.5859 39.2324C82.7298 39.0885 82.8991 38.987 83.0938 38.9277C83.2884 38.86 83.5 38.8262 83.7285 38.8262C83.9486 38.8262 84.1559 38.86 84.3506 38.9277C84.5537 38.987 84.7272 39.0885 84.8711 39.2324C85.015 39.3678 85.1292 39.5498 85.2139 39.7783C85.2985 39.9984 85.3408 40.2692 85.3408 40.5908C85.3408 40.904 85.2985 41.1748 85.2139 41.4033C85.1292 41.6234 85.015 41.8053 84.8711 41.9492C84.7272 42.0931 84.5537 42.1989 84.3506 42.2666C84.1559 42.3343 83.9486 42.3682 83.7285 42.3682C83.5 42.3682 83.2884 42.3343 83.0938 42.2666C82.8991 42.1989 82.7298 42.0931 82.5859 41.9492C82.4421 41.8053 82.3278 41.6234 82.2432 41.4033C82.1585 41.1748 82.1162 40.904 82.1162 40.5908ZM82.1162 29.4697C82.1162 29.1396 82.1585 28.8646 82.2432 28.6445C82.3278 28.416 82.4421 28.234 82.5859 28.0986C82.7298 27.9548 82.8991 27.8532 83.0938 27.7939C83.2884 27.7347 83.5 27.7051 83.7285 27.7051C83.9486 27.7051 84.1559 27.7347 84.3506 27.7939C84.5537 27.8532 84.7272 27.9548 84.8711 28.0986C85.015 28.234 85.1292 28.416 85.2139 28.6445C85.2985 28.8646 85.3408 29.1396 85.3408 29.4697C85.3408 29.7829 85.2985 30.0495 85.2139 30.2695C85.1292 30.4896 85.015 30.6715 84.8711 30.8154C84.7272 30.9593 84.5537 31.0651 84.3506 31.1328C84.1559 31.2005 83.9486 31.2344 83.7285 31.2344C83.5 31.2344 83.2884 31.2005 83.0938 31.1328C82.8991 31.0651 82.7298 30.9593 82.5859 30.8154C82.4421 30.6715 82.3278 30.4896 82.2432 30.2695C82.1585 30.0495 82.1162 29.7829 82.1162 29.4697Z" fill="#539BD8"/>
<path d="M98.1758 23.4395L97.6553 30.1426H96.1953L95.6748 23.4395H98.1758ZM102.746 23.4395L102.226 30.1426H100.778L100.258 23.4395H102.746ZM118.095 28.873C118.095 29.6432 117.976 30.3838 117.739 31.0947C117.511 31.8057 117.13 32.4362 116.597 32.9863C116.063 33.528 115.357 33.9639 114.477 34.2939C113.605 34.6156 112.526 34.7764 111.239 34.7764H109.335V42H106.974V23.4395H111.569C112.703 23.4395 113.681 23.5622 114.502 23.8076C115.323 24.0446 116 24.3958 116.533 24.8613C117.066 25.3184 117.46 25.8854 117.714 26.5625C117.968 27.2396 118.095 28.0098 118.095 28.873ZM109.335 32.7705H110.973C111.76 32.7705 112.445 32.7028 113.029 32.5674C113.622 32.432 114.108 32.2161 114.489 31.9199C114.879 31.6152 115.171 31.2259 115.365 30.752C115.56 30.2695 115.657 29.6855 115.657 29C115.657 27.7982 115.31 26.9095 114.616 26.334C113.922 25.75 112.839 25.458 111.366 25.458H109.335V32.7705ZM129.495 42L129.025 40.0703H128.924C128.645 40.4512 128.365 40.7812 128.086 41.0605C127.807 41.3314 127.502 41.5557 127.172 41.7334C126.842 41.9111 126.474 42.0423 126.067 42.127C125.661 42.2116 125.191 42.2539 124.658 42.2539C124.074 42.2539 123.537 42.1693 123.046 42C122.555 41.8392 122.128 41.5895 121.764 41.251C121.408 40.904 121.129 40.4723 120.926 39.9561C120.723 39.4313 120.621 38.8135 120.621 38.1025C120.621 36.7145 121.108 35.6481 122.081 34.9033C123.063 34.1585 124.552 33.7523 126.55 33.6846L128.886 33.5957V32.7197C128.886 32.1527 128.822 31.6787 128.695 31.2979C128.577 30.917 128.399 30.6123 128.162 30.3838C127.934 30.1468 127.646 29.9775 127.299 29.876C126.96 29.7744 126.571 29.7236 126.131 29.7236C125.428 29.7236 124.772 29.8252 124.163 30.0283C123.562 30.2314 122.982 30.4769 122.424 30.7646L121.611 29.0254C122.238 28.6868 122.936 28.3991 123.706 28.1621C124.476 27.9251 125.285 27.8066 126.131 27.8066C126.994 27.8066 127.739 27.8955 128.365 28.0732C129 28.2425 129.521 28.5176 129.927 28.8984C130.341 29.2708 130.65 29.749 130.854 30.333C131.057 30.917 131.158 31.6237 131.158 32.4531V42H129.495ZM125.255 40.3877C125.771 40.3877 126.249 40.3073 126.689 40.1465C127.13 39.9857 127.51 39.7445 127.832 39.4229C128.154 39.0928 128.403 38.6823 128.581 38.1914C128.767 37.6921 128.86 37.1081 128.86 36.4395V35.1826L127.045 35.2715C126.283 35.3053 125.644 35.39 125.128 35.5254C124.612 35.6608 124.197 35.8512 123.884 36.0967C123.579 36.3337 123.359 36.6257 123.224 36.9727C123.088 37.3112 123.021 37.6963 123.021 38.1279C123.021 38.9066 123.224 39.4779 123.63 39.8418C124.045 40.2057 124.586 40.3877 125.255 40.3877ZM137.76 42H135.449V28.0605H137.76V42ZM135.271 24.29C135.271 23.7822 135.398 23.4141 135.652 23.1855C135.915 22.957 136.236 22.8428 136.617 22.8428C136.803 22.8428 136.977 22.8724 137.138 22.9316C137.307 22.9824 137.451 23.0671 137.569 23.1855C137.696 23.304 137.794 23.4564 137.861 23.6426C137.938 23.8203 137.976 24.0361 137.976 24.29C137.976 24.7809 137.84 25.1491 137.569 25.3945C137.307 25.6315 136.99 25.75 136.617 25.75C136.236 25.75 135.915 25.6315 135.652 25.3945C135.398 25.1576 135.271 24.7894 135.271 24.29ZM148.208 27.8066C148.453 27.8066 148.729 27.8193 149.033 27.8447C149.338 27.8617 149.6 27.8913 149.82 27.9336L149.516 30.0664C149.279 30.0241 149.033 29.9902 148.779 29.9648C148.534 29.931 148.301 29.9141 148.081 29.9141C147.548 29.9141 147.061 30.0241 146.621 30.2441C146.181 30.4557 145.8 30.7646 145.479 31.1709C145.165 31.5687 144.92 32.0511 144.742 32.6182C144.573 33.1768 144.488 33.7988 144.488 34.4844V42H142.178V28.0605H144.057L144.336 30.6123H144.438C144.649 30.2484 144.873 29.8971 145.11 29.5586C145.356 29.2201 145.627 28.9238 145.923 28.6699C146.228 28.4076 146.566 28.2002 146.938 28.0479C147.311 27.887 147.734 27.8066 148.208 27.8066ZM155.838 23.4395L155.317 30.1426H153.857L153.337 23.4395H155.838ZM160.408 23.4395L159.888 30.1426H158.44L157.92 23.4395H160.408Z" fill="#CF9176"/>
</svg>
