<svg width="114" height="25" viewBox="0 0 114 25" fill="none" xmlns="http://www.w3.org/2000/svg">
<path d="M6.12988 20.2031C6.12988 20.6094 6.18066 20.9395 6.28223 21.1934C6.38379 21.4557 6.52767 21.6589 6.71387 21.8027C6.90853 21.9551 7.14128 22.0566 7.41211 22.1074C7.69141 22.1667 8.00033 22.2005 8.33887 22.209V24.1133C7.68717 24.1048 7.08203 24.0286 6.52344 23.8848C5.97331 23.7493 5.49512 23.5293 5.08887 23.2246C4.69108 22.9284 4.37793 22.5475 4.14941 22.082C3.9209 21.6165 3.80664 21.0537 3.80664 20.3936V16.1533C3.80664 15.2816 3.52734 14.6637 2.96875 14.2998C2.41862 13.9359 1.61458 13.7539 0.556641 13.7539V11.7861C1.61458 11.7861 2.41862 11.6042 2.96875 11.2402C3.52734 10.8763 3.80664 10.2585 3.80664 9.38672V5.15918C3.80664 4.49902 3.9209 3.9362 4.14941 3.4707C4.37793 3.00521 4.69108 2.62435 5.08887 2.32812C5.49512 2.02344 5.97331 1.80339 6.52344 1.66797C7.08203 1.52409 7.68717 1.44792 8.33887 1.43945V3.33105C8.00033 3.33952 7.69141 3.37337 7.41211 3.43262C7.14128 3.4834 6.90853 3.58496 6.71387 3.7373C6.52767 3.88118 6.38379 4.08431 6.28223 4.34668C6.18066 4.60059 6.12988 4.93066 6.12988 5.33691V9.55176C6.12988 10.4404 5.87598 11.1471 5.36816 11.6719C4.86882 12.1882 4.13249 12.5309 3.15918 12.7002V12.8525C4.13249 13.0218 4.86882 13.3646 5.36816 13.8809C5.87598 14.3971 6.12988 15.1038 6.12988 16.001V20.2031ZM107.857 16.001C107.857 15.1038 108.107 14.3971 108.606 13.8809C109.114 13.3646 109.855 13.0218 110.828 12.8525V12.7002C109.855 12.5309 109.114 12.1882 108.606 11.6719C108.107 11.1471 107.857 10.4404 107.857 9.55176V5.33691C107.857 4.93066 107.807 4.60059 107.705 4.34668C107.604 4.08431 107.455 3.88118 107.261 3.7373C107.075 3.58496 106.842 3.4834 106.562 3.43262C106.292 3.37337 105.987 3.33952 105.648 3.33105V1.43945C106.3 1.44792 106.901 1.52409 107.451 1.66797C108.01 1.80339 108.488 2.02344 108.886 2.32812C109.292 2.62435 109.609 3.00521 109.838 3.4707C110.066 3.9362 110.181 4.49902 110.181 5.15918V9.38672C110.181 9.82682 110.248 10.1992 110.384 10.5039C110.528 10.8086 110.735 11.0583 111.006 11.2529C111.285 11.4391 111.628 11.5745 112.034 11.6592C112.44 11.7438 112.906 11.7861 113.431 11.7861V13.7539C112.373 13.7539 111.564 13.9359 111.006 14.2998C110.456 14.6637 110.181 15.2816 110.181 16.1533V20.3936C110.181 21.0537 110.066 21.6165 109.838 22.082C109.609 22.5475 109.292 22.9284 108.886 23.2246C108.488 23.5293 108.01 23.7493 107.451 23.8848C106.901 24.0286 106.3 24.1048 105.648 24.1133V22.209C105.987 22.2005 106.292 22.1667 106.562 22.1074C106.842 22.0566 107.075 21.9551 107.261 21.8027C107.455 21.6589 107.604 21.4557 107.705 21.1934C107.807 20.9395 107.857 20.6094 107.857 20.2031V16.001Z" fill="white"/>
<path d="M19.2695 1.43945H21.7705L24.6777 12.3066C24.8047 12.7806 24.9274 13.2546 25.0459 13.7285C25.1729 14.2025 25.2871 14.6637 25.3887 15.1123C25.4987 15.5524 25.5918 15.9714 25.668 16.3691C25.7526 16.7669 25.8203 17.1266 25.8711 17.4482C25.9049 17.1266 25.9473 16.7754 25.998 16.3945C26.0488 16.0137 26.1081 15.6159 26.1758 15.2012C26.2435 14.778 26.3154 14.3506 26.3916 13.9189C26.4762 13.4788 26.5651 13.0514 26.6582 12.6367L29.1973 1.43945H31.7236L27.0645 20H24.6777L21.4531 8.0918C21.3346 7.66016 21.2204 7.21582 21.1104 6.75879C21.0003 6.30176 20.8988 5.87435 20.8057 5.47656C20.7041 5.01107 20.6068 4.55827 20.5137 4.11816C20.4206 4.5498 20.3275 4.99837 20.2344 5.46387C20.1497 5.86165 20.0524 6.29753 19.9424 6.77148C19.8408 7.24544 19.7308 7.71094 19.6123 8.16797L16.54 20H14.1533L9.25293 1.43945H11.7539L14.585 12.7256C14.6865 13.1149 14.7796 13.5212 14.8643 13.9443C14.9489 14.359 15.0251 14.7738 15.0928 15.1885C15.1689 15.6032 15.2367 16.0052 15.2959 16.3945C15.3551 16.7754 15.4059 17.1266 15.4482 17.4482C15.4906 17.1351 15.5413 16.7712 15.6006 16.3564C15.6683 15.9417 15.7445 15.5059 15.8291 15.0488C15.9137 14.5918 16.0026 14.1305 16.0957 13.665C16.1973 13.1911 16.3031 12.7467 16.4131 12.332L19.2695 1.43945ZM39.1631 20.2539C38.2321 20.2539 37.3815 20.0973 36.6113 19.7842C35.8411 19.471 35.1768 19.014 34.6182 18.4131C34.068 17.8122 33.6406 17.0674 33.3359 16.1787C33.0312 15.29 32.8789 14.2744 32.8789 13.1318C32.8789 11.9808 33.0186 10.9525 33.2979 10.0469C33.5771 9.14128 33.9707 8.37533 34.4785 7.74902C34.9863 7.11426 35.5915 6.63184 36.2939 6.30176C37.0049 5.97168 37.7878 5.80664 38.6426 5.80664C39.4805 5.80664 40.2337 5.95898 40.9023 6.26367C41.571 6.5599 42.138 6.98307 42.6035 7.5332C43.069 8.07487 43.4245 8.73079 43.6699 9.50098C43.9238 10.2627 44.0508 11.109 44.0508 12.04V13.4746H35.2656C35.3079 15.1081 35.6507 16.3099 36.2939 17.0801C36.9456 17.8503 37.9105 18.2354 39.1885 18.2354C39.6201 18.2354 40.0179 18.2142 40.3818 18.1719C40.7542 18.1296 41.1097 18.0703 41.4482 17.9941C41.7952 17.9095 42.1296 17.8079 42.4512 17.6895C42.7728 17.5625 43.0986 17.4229 43.4287 17.2705V19.3271C43.0902 19.488 42.7559 19.6276 42.4258 19.7461C42.1042 19.8646 41.7699 19.9619 41.4229 20.0381C41.0843 20.1143 40.7288 20.1693 40.3564 20.2031C39.9925 20.237 39.5947 20.2539 39.1631 20.2539ZM38.5918 7.72363C37.627 7.72363 36.861 8.05371 36.2939 8.71387C35.7354 9.37402 35.4095 10.3346 35.3164 11.5957H41.5625C41.5625 11.0202 41.5033 10.4954 41.3848 10.0215C41.2747 9.53906 41.097 9.12858 40.8516 8.79004C40.6146 8.4515 40.3099 8.18913 39.9375 8.00293C39.5651 7.81673 39.1165 7.72363 38.5918 7.72363ZM47.2246 18.5908C47.2246 18.2692 47.2669 17.9984 47.3516 17.7783C47.4362 17.5498 47.5505 17.3678 47.6943 17.2324C47.8382 17.0885 48.0075 16.987 48.2021 16.9277C48.3968 16.86 48.6084 16.8262 48.8369 16.8262C49.057 16.8262 49.2643 16.86 49.459 16.9277C49.6621 16.987 49.8356 17.0885 49.9795 17.2324C50.1234 17.3678 50.2376 17.5498 50.3223 17.7783C50.4069 17.9984 50.4492 18.2692 50.4492 18.5908C50.4492 18.904 50.4069 19.1748 50.3223 19.4033C50.2376 19.6234 50.1234 19.8053 49.9795 19.9492C49.8356 20.0931 49.6621 20.1989 49.459 20.2666C49.2643 20.3343 49.057 20.3682 48.8369 20.3682C48.6084 20.3682 48.3968 20.3343 48.2021 20.2666C48.0075 20.1989 47.8382 20.0931 47.6943 19.9492C47.5505 19.8053 47.4362 19.6234 47.3516 19.4033C47.2669 19.1748 47.2246 18.904 47.2246 18.5908ZM47.2246 7.46973C47.2246 7.13965 47.2669 6.86458 47.3516 6.64453C47.4362 6.41602 47.5505 6.23405 47.6943 6.09863C47.8382 5.95475 48.0075 5.85319 48.2021 5.79395C48.3968 5.7347 48.6084 5.70508 48.8369 5.70508C49.057 5.70508 49.2643 5.7347 49.459 5.79395C49.6621 5.85319 49.8356 5.95475 49.9795 6.09863C50.1234 6.23405 50.2376 6.41602 50.3223 6.64453C50.4069 6.86458 50.4492 7.13965 50.4492 7.46973C50.4492 7.78288 50.4069 8.04948 50.3223 8.26953C50.2376 8.48958 50.1234 8.67155 49.9795 8.81543C49.8356 8.95931 49.6621 9.0651 49.459 9.13281C49.2643 9.20052 49.057 9.23438 48.8369 9.23438C48.6084 9.23438 48.3968 9.20052 48.2021 9.13281C48.0075 9.0651 47.8382 8.95931 47.6943 8.81543C47.5505 8.67155 47.4362 8.48958 47.3516 8.26953C47.2669 8.04948 47.2246 7.78288 47.2246 7.46973Z" fill="#9ADCFF"/>
<path d="M72.7422 6.87305C72.7422 7.64323 72.6237 8.38379 72.3867 9.09473C72.1582 9.80566 71.7773 10.4362 71.2441 10.9863C70.7109 11.528 70.0042 11.9639 69.124 12.2939C68.2523 12.6156 67.1732 12.7764 65.8867 12.7764H63.9824V20H61.6211V1.43945H66.2168C67.3509 1.43945 68.3285 1.56217 69.1494 1.80762C69.9704 2.0446 70.6475 2.39583 71.1807 2.86133C71.7139 3.31836 72.1074 3.88542 72.3613 4.5625C72.6152 5.23958 72.7422 6.00977 72.7422 6.87305ZM63.9824 10.7705H65.6201C66.4072 10.7705 67.0928 10.7028 67.6768 10.5674C68.2692 10.432 68.7559 10.2161 69.1367 9.91992C69.526 9.61523 69.818 9.22591 70.0127 8.75195C70.2074 8.26953 70.3047 7.68555 70.3047 7C70.3047 5.79818 69.9577 4.90951 69.2637 4.33398C68.5697 3.75 67.4863 3.45801 66.0137 3.45801H63.9824V10.7705ZM84.1426 20L83.6729 18.0703H83.5713C83.292 18.4512 83.0127 18.7812 82.7334 19.0605C82.4541 19.3314 82.1494 19.5557 81.8193 19.7334C81.4893 19.9111 81.1211 20.0423 80.7148 20.127C80.3086 20.2116 79.8389 20.2539 79.3057 20.2539C78.7217 20.2539 78.1842 20.1693 77.6934 20C77.2025 19.8392 76.7751 19.5895 76.4111 19.251C76.0557 18.904 75.7764 18.4723 75.5732 17.9561C75.3701 17.4313 75.2686 16.8135 75.2686 16.1025C75.2686 14.7145 75.7552 13.6481 76.7285 12.9033C77.7103 12.1585 79.1999 11.7523 81.1973 11.6846L83.5332 11.5957V10.7197C83.5332 10.1527 83.4697 9.67871 83.3428 9.29785C83.2243 8.91699 83.0465 8.6123 82.8096 8.38379C82.5811 8.14681 82.2933 7.97754 81.9463 7.87598C81.6077 7.77441 81.2184 7.72363 80.7783 7.72363C80.0758 7.72363 79.4199 7.8252 78.8105 8.02832C78.2096 8.23145 77.6299 8.47689 77.0713 8.76465L76.2588 7.02539C76.8851 6.68685 77.5833 6.39909 78.3535 6.16211C79.1237 5.92513 79.932 5.80664 80.7783 5.80664C81.6416 5.80664 82.3864 5.89551 83.0127 6.07324C83.6475 6.24251 84.168 6.51758 84.5742 6.89844C84.9889 7.27083 85.2979 7.74902 85.501 8.33301C85.7041 8.91699 85.8057 9.6237 85.8057 10.4531V20H84.1426ZM79.9023 18.3877C80.4186 18.3877 80.8968 18.3073 81.3369 18.1465C81.777 17.9857 82.1579 17.7445 82.4795 17.4229C82.8011 17.0928 83.0508 16.6823 83.2285 16.1914C83.4147 15.6921 83.5078 15.1081 83.5078 14.4395V13.1826L81.6924 13.2715C80.9307 13.3053 80.2917 13.39 79.7754 13.5254C79.2591 13.6608 78.8444 13.8512 78.5312 14.0967C78.2266 14.3337 78.0065 14.6257 77.8711 14.9727C77.7357 15.3112 77.668 15.6963 77.668 16.1279C77.668 16.9066 77.8711 17.4779 78.2773 17.8418C78.6921 18.2057 79.2337 18.3877 79.9023 18.3877ZM92.4072 20H90.0967V6.06055H92.4072V20ZM89.9189 2.29004C89.9189 1.78223 90.0459 1.41406 90.2998 1.18555C90.5622 0.957031 90.8838 0.842773 91.2646 0.842773C91.4508 0.842773 91.6243 0.872396 91.7852 0.931641C91.9544 0.982422 92.0983 1.06706 92.2168 1.18555C92.3438 1.30404 92.4411 1.45638 92.5088 1.64258C92.585 1.82031 92.623 2.03613 92.623 2.29004C92.623 2.78092 92.4876 3.14909 92.2168 3.39453C91.9544 3.63151 91.637 3.75 91.2646 3.75C90.8838 3.75 90.5622 3.63151 90.2998 3.39453C90.0459 3.15755 89.9189 2.78939 89.9189 2.29004ZM102.855 5.80664C103.101 5.80664 103.376 5.81934 103.681 5.84473C103.985 5.86165 104.248 5.89128 104.468 5.93359L104.163 8.06641C103.926 8.02409 103.681 7.99023 103.427 7.96484C103.181 7.93099 102.949 7.91406 102.729 7.91406C102.195 7.91406 101.709 8.02409 101.269 8.24414C100.828 8.45573 100.448 8.76465 100.126 9.1709C99.8128 9.56868 99.5674 10.0511 99.3896 10.6182C99.2204 11.1768 99.1357 11.7988 99.1357 12.4844V20H96.8252V6.06055H98.7041L98.9834 8.6123H99.085C99.2965 8.24837 99.5208 7.89714 99.7578 7.55859C100.003 7.22005 100.274 6.92383 100.57 6.66992C100.875 6.40755 101.214 6.2002 101.586 6.04785C101.958 5.88704 102.382 5.80664 102.855 5.80664Z" fill="#CF9176"/>
</svg>
